<?xml version="1.0" encoding="utf-8"?>
<!-- Generator: Adobe Illustrator 18.0.0, SVG Export Plug-In . SVG Version: 6.00 Build 0)  -->
<!DOCTYPE svg PUBLIC "-//W3C//DTD SVG 1.1//EN" "http://www.w3.org/Graphics/SVG/1.1/DTD/svg11.dtd">
<svg version="1.1" xmlns="http://www.w3.org/2000/svg" xmlns:xlink="http://www.w3.org/1999/xlink" x="0px" y="0px"
	 viewBox="0 0 280 190" enable-background="new 0 0 280 190" xml:space="preserve">
<g id="bg" display="none">
	<rect x="0.7" display="inline" width="279.8" height="190.1"/>
</g>
<g id="Logo">
	<g>
		<g display="none">
			<text transform="matrix(1 0 0 1 37.2744 121.7734)" display="inline"><tspan x="0" y="0" fill="#A7C6D3" font-family="'SourceSansPro-Light'" font-size="21.3061" letter-spacing="3">JULI</tspan><tspan x="50.6" y="0" fill="#A7C6D3" font-family="'SourceSansPro-Light'" font-size="21.3061">A</tspan></text>
			<text transform="matrix(1 0 0 1 104.1299 121.7734)" display="inline"><tspan x="0" y="0" fill="#A7C6D3" font-family="'SourceSansPro-Bold'" font-size="21.3061" letter-spacing="2">P</tspan><tspan x="15" y="0" fill="#A7C6D3" font-family="'SourceSansPro-Bold'" font-size="21.3061" letter-spacing="3">A</tspan><tspan x="30.4" y="0" fill="#A7C6D3" font-family="'SourceSansPro-Bold'" font-size="21.3061" letter-spacing="3">SC</tspan><tspan x="60.9" y="0" fill="#A7C6D3" font-family="'SourceSansPro-Bold'" font-size="21.3061" letter-spacing="3">HO</tspan><tspan x="96.1" y="0" fill="#A7C6D3" font-family="'SourceSansPro-Bold'" font-size="21.3061">S</tspan></text>
			<text transform="matrix(1 0 0 1 37.2744 142.4336)" display="inline"><tspan x="0" y="0" fill="#A7C6D3" font-family="'SourceSansPro-Light'" font-size="18.7235" letter-spacing="2">A</tspan><tspan x="11.8" y="0" fill="#A7C6D3" font-family="'SourceSansPro-Light'" font-size="18.7235" letter-spacing="2">R</tspan><tspan x="24.2" y="0" fill="#A7C6D3" font-family="'SourceSansPro-Light'" font-size="18.7235" letter-spacing="2">CHITE</tspan><tspan x="80.3" y="0" fill="#A7C6D3" font-family="'SourceSansPro-Light'" font-size="18.7235" letter-spacing="1">K</tspan><tspan x="92.4" y="0" fill="#A7C6D3" font-family="'SourceSansPro-Light'" font-size="18.7235" letter-spacing="2">T</tspan><tspan x="104.2" y="0" fill="#A7C6D3" font-family="'SourceSansPro-Light'" font-size="18.7235" letter-spacing="2">U</tspan><tspan x="118" y="0" fill="#A7C6D3" font-family="'SourceSansPro-Light'" font-size="18.7235">R</tspan></text>
		</g>
		<polygon fill="#A7C6D3" points="221.8,22.9 221.8,98.1 227.2,98.1 227.2,51.6 234.5,51.6 234.5,98.1 238,98.1 238,51.6 
			240.6,51.6 240.6,98.1 258.7,98.1 258.7,22.9 		"/>
		<g>
			<g>
				<line fill="none" stroke="#A7C6D3" stroke-width="1.2" x1="-1.4" y1="97.5" x2="223.6" y2="97.5"/>
				<line fill="none" stroke="#A7C6D3" stroke-width="1.2" x1="235" y1="97.4" x2="280.5" y2="190.1"/>
				<line fill="none" stroke="#A7C6D3" stroke-width="1.2" x1="246" y1="97.5" x2="281.2" y2="97.5"/>
			</g>
		</g>
	</g>
</g>
</svg>
